<svg width="706" height="171" viewBox="0 0 706 171" fill="none" xmlns="http://www.w3.org/2000/svg">
<mask id="mask0" style="mask-type:alpha" maskUnits="userSpaceOnUse" x="0" y="0" width="706" height="171">
<path d="M150.888 6.46729H0V163.876H150.888V6.46729Z" fill="black"/>
<path d="M541.944 170.347H378.654V0L541.944 170.347Z" fill="black"/>
<path d="M265.229 170.26C310.297 170.26 346.833 132.146 346.833 85.1302C346.833 38.1141 310.297 0 265.229 0C220.161 0 183.625 38.1141 183.625 85.1302C183.625 132.146 220.161 170.26 265.229 170.26Z" fill="black"/>
<path d="M624.396 170.26C669.464 170.26 706 132.146 706 85.1302C706 38.1141 669.464 0 624.396 0C579.328 0 542.792 38.1141 542.792 85.1302C542.792 132.146 579.328 170.26 624.396 170.26Z" fill="black"/>
</mask>
<g mask="url(#mask0)">
<rect x="-3.75391" y="-269.621" width="709.749" height="709.749" fill="black"/>
</g>
</svg>
